<svg width="2310" height="501" viewBox="0 0 2310 501" fill="none" xmlns="http://www.w3.org/2000/svg">
<path d="M250.869 27.8203C308.813 27.7911 364.47 50.4241 405.949 90.8833C386.914 93.3163 368.473 99.1589 351.51 108.131C325.383 89.6435 294.677 78.6953 262.748 76.4833C230.819 74.2713 198.896 80.8806 170.47 95.5888C142.045 110.297 118.21 132.538 101.572 159.879C84.9348 187.22 76.1349 218.61 76.1349 250.615C76.1349 282.621 84.9348 314.01 101.572 341.352C118.21 368.693 142.045 390.934 170.47 405.642C198.896 420.35 230.819 426.959 262.748 424.747C294.677 422.536 325.383 411.587 351.51 393.1C368.473 402.072 386.914 407.915 405.949 410.348C379.767 435.772 347.74 454.374 312.683 464.517C277.626 474.66 240.614 476.033 204.901 468.516C169.189 460.999 135.871 444.823 107.877 421.409C79.8832 397.994 58.0714 368.061 44.3601 334.24C30.6487 300.418 25.4578 263.746 29.244 227.448C33.0301 191.15 45.6774 156.339 66.0733 126.076C86.4691 95.812 113.989 71.0237 146.212 53.8908C178.435 36.7579 214.375 27.8053 250.869 27.8203ZM560.465 250.615C560.437 279.293 551.21 307.205 534.14 330.25C517.07 353.294 493.058 370.254 465.633 378.638C488.789 339.949 501.018 295.704 501.018 250.615C501.018 205.526 488.789 161.282 465.633 122.593C493.058 130.976 517.07 147.937 534.14 170.981C551.21 194.025 560.437 221.938 560.465 250.615ZM425.419 250.615C425.431 227.727 420.927 205.062 412.165 183.917C403.403 162.773 390.556 143.565 374.358 127.394C390.876 120.356 408.649 116.737 426.604 116.755C427.404 116.755 428.145 116.755 428.945 116.755C457.983 155.296 473.687 202.241 473.687 250.497C473.687 298.753 457.983 345.698 428.945 384.239C428.145 384.239 427.404 384.239 426.604 384.239C408.649 384.257 390.876 380.638 374.358 373.6C407.014 340.998 425.381 296.759 425.419 250.615ZM326.675 376.83C304.329 390.271 278.814 397.538 252.739 397.887C226.664 398.237 200.963 391.658 178.264 378.822C155.564 365.986 136.68 347.353 123.54 324.828C110.401 302.303 103.477 276.693 103.477 250.615C103.477 224.538 110.401 198.928 123.54 176.403C136.68 153.878 155.564 135.245 178.264 122.409C200.963 109.573 226.664 102.993 252.739 103.343C278.814 103.693 304.329 110.96 326.675 124.4C307.608 139.452 292.199 158.627 281.604 180.487C271.01 202.347 265.506 226.323 265.506 250.615C265.506 274.907 271.01 298.884 281.604 320.744C292.199 342.604 307.608 361.779 326.675 376.83ZM292.773 250.615C292.787 229.189 297.952 208.081 307.834 189.07C317.716 170.059 332.025 153.703 349.553 141.381C364.857 155.167 377.094 172.015 385.469 190.832C393.845 209.65 398.173 230.018 398.173 250.615C398.173 271.213 393.845 291.581 385.469 310.398C377.094 329.216 364.857 346.064 349.553 359.85C332.028 347.525 317.722 331.168 307.841 312.158C297.959 293.147 292.792 272.04 292.773 250.615ZM250.869 500.675C287.447 500.675 323.577 492.638 356.705 477.131C389.832 461.625 419.148 439.028 442.577 410.94C482.335 406.963 519.198 388.355 546.008 358.729C572.818 329.103 587.665 290.572 587.665 250.615C587.665 210.659 572.818 172.128 546.008 142.502C519.198 112.875 482.335 94.2677 442.577 90.2906C415.597 58.0298 380.914 33.0968 341.739 17.7994C302.564 2.50207 260.163 -2.66518 218.46 2.77588C176.758 8.21694 137.102 24.0905 103.163 48.9273C69.2243 73.7641 42.0998 106.761 24.3001 144.865C6.50033 182.968 -1.39941 224.946 1.33231 266.913C4.06403 308.88 17.3388 349.48 39.9278 384.955C62.5169 420.429 93.6904 449.632 130.562 469.859C167.434 490.087 208.813 500.686 250.869 500.675Z" fill="#FFAD60"/>
<path d="M2027.48 129.705C2027.48 169.149 2027.72 208.593 2027.3 248.037C2027.33 259 2026.15 269.932 2023.78 280.636C2017.52 307.455 2001.82 326.984 1975.44 336.675C1954.66 344.207 1932.05 345.026 1910.78 339.016C1899.48 336.281 1889.01 330.887 1880.22 323.284C1871.43 315.681 1864.58 306.088 1860.25 295.305C1855.17 283.638 1852.48 271.073 1852.34 258.35C1852.07 215.409 1852.13 172.409 1852.04 129.557V124.341H1818.76C1818.76 125.704 1818.58 126.919 1818.58 128.134C1818.58 169.12 1818.26 210.105 1818.76 251.06C1818.87 263.866 1820.3 276.627 1823.03 289.141C1830.79 323.873 1850.15 349.981 1883.66 363.939C1908.63 374.273 1936.2 376.552 1962.52 370.459C1985.65 365.816 2006.07 352.376 2019.48 332.971C2022.06 329.296 2024.28 325.355 2027.33 320.524C2027.33 335.164 2027.66 348.618 2027.33 362.013C2027.19 370.773 2026.32 379.507 2024.73 388.121C2018.8 416.867 2002.41 436.752 1973.93 445.257C1951.18 452.15 1926.92 452.263 1904.11 445.583C1894.83 443.169 1886.11 438.931 1878.48 433.115C1870.85 427.3 1864.45 420.024 1859.66 411.711C1857.58 408.154 1856.49 402.998 1853.44 401.309C1850.38 399.62 1845.02 400.746 1840.69 400.746H1821.73C1821.69 401.209 1821.69 401.675 1821.73 402.139C1821.93 402.939 1822.14 403.769 1822.38 404.569C1832.78 435.656 1853.11 457.674 1883.69 469.499C1917.83 482.716 1952.77 482.834 1987.42 472.166C2017.52 462.979 2039.16 443.776 2051.1 414.348C2057.94 396.477 2061.21 377.438 2060.73 358.309V124.4H2027.39L2027.48 129.705Z" fill="black"/>
<path d="M1005.52 227.263C1006.99 215.607 1010.82 204.374 1016.78 194.25C1032.46 167.578 1056.35 153.443 1086.57 149.442C1108.38 146.141 1130.68 149.638 1150.44 159.458C1163.24 166.07 1174.25 175.697 1182.51 187.509C1190.77 199.321 1196.04 212.964 1197.85 227.263H1005.52ZM1231.25 224.922C1225.32 184.885 1205.17 153.798 1169.4 134.091C1140.83 118.266 1109.96 114.532 1078.07 119.511C1039.54 125.438 1008.93 144.137 988.482 177.684C971.649 205.363 966.937 235.709 971.649 267.448C977.28 305.025 995.742 334.808 1028.28 355.078C1054.95 371.792 1084.59 377.186 1115.82 374.341C1153.43 370.933 1184.99 355.701 1208.25 325.206C1214.14 317.598 1218.88 309.172 1222.33 300.195C1211.19 300.195 1200.61 300.195 1190.06 300.195C1188.9 300.088 1187.75 300.334 1186.74 300.9C1185.72 301.466 1184.91 302.326 1184.4 303.365C1177.24 315.302 1167 325.096 1154.76 331.726C1134.3 342.745 1110.85 346.901 1087.85 343.58C1058.6 340.024 1034.86 326.955 1018.74 301.706C1010.35 288.364 1005.38 273.155 1004.28 257.431H1233.5C1232.73 246.17 1232.7 235.531 1231.13 225.1" fill="black"/>
<path d="M1723.01 238.346C1703.39 234.168 1683.48 231.382 1663.74 228.122C1651.65 226.137 1639.41 224.596 1628.18 218.965C1624.26 217.272 1620.79 214.695 1618.03 211.435C1615.28 208.175 1613.31 204.322 1612.3 200.177C1610.34 191.806 1611.23 183.021 1614.84 175.218C1618.45 167.415 1624.56 161.044 1632.21 157.117C1653.22 145.619 1675.57 145.263 1698 151.724C1716.34 157.117 1729.44 168.29 1732.58 188.441C1732.8 189.013 1733.15 189.522 1733.61 189.921C1734.07 190.32 1734.63 190.596 1735.22 190.723C1745.12 190.871 1755.02 190.723 1765.98 190.723C1764.89 184.559 1764.44 178.869 1763.02 173.683C1756.08 149.412 1739.49 133.972 1716.46 125.319C1689.83 115.354 1660.63 114.552 1633.49 123.037C1597.51 133.706 1577.18 161.562 1578.25 197.924C1578.93 218.669 1587.46 234.968 1606.31 244.481C1614.94 249.001 1624.13 252.369 1633.63 254.497C1651.41 258.172 1669.7 260.424 1687.75 263.121C1699.33 264.899 1710.95 266.559 1721.68 271.745C1727.71 274.335 1732.67 278.904 1735.74 284.697C1738.82 290.49 1739.83 297.159 1738.6 303.602C1737.89 310.315 1735.45 316.728 1731.51 322.21C1727.57 327.692 1722.27 332.054 1716.14 334.867C1702.75 341.631 1687.97 345.184 1672.97 345.246C1657.97 345.307 1643.16 341.876 1629.72 335.223C1623.91 332.565 1618.81 328.565 1614.84 323.553C1610.87 318.54 1608.15 312.657 1606.9 306.388C1606.4 304.254 1606.1 302.091 1605.75 300.106H1572.23C1572.23 302.061 1572.44 303.751 1572.64 305.38C1576.35 332.941 1591.82 352.085 1616.56 363.257C1651.12 378.875 1686.83 379.201 1722.09 366.043C1750.13 355.582 1768.32 335.786 1772.06 305.084C1774.22 287.303 1771.2 270.856 1758.37 257.342C1748.86 247.527 1736.57 240.865 1723.16 238.258" fill="black"/>
<path d="M2295.05 257.787C2285.51 247.774 2273.08 240.988 2259.49 238.376C2239.87 234.168 2219.96 231.382 2200.22 228.122C2188.13 226.137 2175.92 224.596 2164.66 219.025C2160.73 217.329 2157.25 214.752 2154.48 211.494C2151.71 208.236 2149.73 204.384 2148.69 200.236C2146.7 191.802 2147.61 182.944 2151.28 175.093C2154.95 167.242 2161.16 160.857 2168.9 156.969C2192.01 144.759 2216.31 144.759 2240.02 153.828C2255.91 159.755 2266.43 171.223 2268.8 188.767C2268.96 189.38 2269.17 189.975 2269.45 190.545H2301.69C2301.49 187.76 2301.43 185.27 2301.07 182.84C2300.65 179.841 2300.03 176.871 2299.23 173.95C2292.21 149.679 2275.7 134.18 2252.68 125.526C2226.05 115.549 2196.85 114.726 2169.7 123.185C2133.63 133.795 2113.04 162.066 2114.4 198.428C2115.14 218.906 2123.68 235.175 2142.35 244.629C2150.97 249.158 2160.16 252.536 2169.67 254.675C2187.69 258.35 2206 260.602 2224.2 263.329C2235.79 265.136 2247.4 266.796 2258.07 272.219C2264.01 274.831 2268.9 279.378 2271.93 285.12C2274.96 290.861 2275.95 297.459 2274.75 303.84C2274.03 310.622 2271.55 317.099 2267.55 322.625C2263.56 328.151 2258.18 332.535 2251.97 335.341C2238.67 341.975 2224.03 345.465 2209.18 345.543C2194.32 345.62 2179.65 342.281 2166.29 335.786C2160.39 333.156 2155.19 329.154 2151.15 324.113C2147.1 319.072 2144.32 313.137 2143.03 306.803C2142.55 304.669 2142.26 302.506 2141.87 300.254H2108.59C2108.77 302.328 2108.8 303.988 2109.01 305.618C2112.65 333.178 2128.12 352.381 2152.84 363.554C2187.54 379.26 2223.4 379.586 2258.78 366.251C2286.79 355.73 2304.83 335.786 2308.48 305.084C2310.52 287.718 2307.53 271.389 2295.05 258.024" fill="black"/>
<path d="M898.362 283.925C897.214 283.769 896.05 284.048 895.096 284.705C894.142 285.363 893.468 286.353 893.206 287.481C888.128 300.371 879.991 311.834 869.498 320.88C853.363 334.708 833.108 342.814 811.888 343.935C783.468 346.01 757.419 339.668 735.726 320.228C714.033 300.787 704.491 275.657 704.313 246.941C704.135 218.876 712.344 193.598 733.563 174.305C765.687 145.293 803.205 141.914 842.678 155.843C866.86 164.407 883.574 181.773 893.502 205.511C894.036 206.815 895.576 208.474 896.673 208.474C907.104 208.712 917.417 208.474 927.879 208.474C927.879 207.971 928.086 207.852 928.056 207.704C927.976 207.165 927.867 206.631 927.73 206.104C923.283 189.611 915.255 174.301 904.217 161.265C893.178 148.229 879.401 137.787 863.867 130.683C837.268 118.257 807.48 114.355 778.578 119.51C740.053 125.586 709.44 144.167 689.021 177.713C672.189 205.392 667.447 235.738 672.248 267.448C678.175 307.485 698.593 338.334 734.274 358.219C761.36 373.363 790.758 377.512 821.341 373.837C850.976 370.281 877.173 358.753 898.392 337.327C912.93 322.511 923.279 304.104 928.382 283.984C918.129 283.984 908.26 283.984 898.392 283.984" fill="black"/>
<path d="M1518.38 202.696C1509.82 164.911 1487.74 138.092 1450.55 125.349C1420.45 115.033 1387.86 114.504 1357.44 123.837C1342.82 127.774 1329.3 135.013 1317.92 144.995C1306.54 154.978 1297.6 167.438 1291.79 181.418C1284 200.278 1280.2 220.551 1280.65 240.954C1280.65 282.206 1280.65 323.458 1280.65 364.71V368.355H1313.96V363.228C1313.96 323.487 1313.78 283.777 1313.96 244.066C1313.91 233.766 1314.84 223.486 1316.75 213.364C1322.67 184.944 1338.35 164.2 1366.33 154.094C1383.16 148.246 1401.2 146.727 1418.78 149.679C1447.41 153.917 1468.92 168.23 1480.84 195.257C1486.25 207.537 1489.07 220.805 1489.1 234.227C1489.34 277.287 1489.28 320.346 1489.31 363.406C1489.31 365.036 1489.31 366.665 1489.31 368.444H1522.68V365.006C1522.68 323.339 1522.98 281.673 1522.47 240.006C1522.37 227.477 1520.95 214.992 1518.26 202.755" fill="black"/>
</svg>
